<svg width="101" height="5" viewBox="0 0 101 5" fill="none" xmlns="http://www.w3.org/2000/svg">
<mask id="mask0_5068_877" style="mask-type:alpha" maskUnits="userSpaceOnUse" x="0" y="0" width="101" height="5">
<rect width="101" height="5" fill="#C3935B"/>
</mask>
<g mask="url(#mask0_5068_877)">
<rect x="4.59424" y="-12.5317" width="3.43418" height="32.6248" transform="rotate(15 4.59424 -12.5317)" fill="#BB874B"/>
<rect x="10.604" y="-12.5317" width="3.43418" height="32.6248" transform="rotate(15 10.604 -12.5317)" fill="#BB874B"/>
<rect x="16.6138" y="-12.5317" width="3.43418" height="32.6248" transform="rotate(15 16.6138 -12.5317)" fill="#BB874B"/>
<rect x="22.6235" y="-12.5317" width="3.43418" height="32.6248" transform="rotate(15 22.6235 -12.5317)" fill="#BB874B"/>
<rect x="28.6333" y="-12.5317" width="3.43418" height="32.6248" transform="rotate(15 28.6333 -12.5317)" fill="#BB874B"/>
<rect x="34.6436" y="-12.5317" width="3.43418" height="32.6248" transform="rotate(15 34.6436 -12.5317)" fill="#BB874B"/>
<rect x="40.6533" y="-12.5317" width="3.43418" height="32.6248" transform="rotate(15 40.6533 -12.5317)" fill="#BB874B"/>
<rect x="46.6631" y="-12.5317" width="3.43418" height="32.6248" transform="rotate(15 46.6631 -12.5317)" fill="#BB874B"/>
<rect x="52.6729" y="-12.5317" width="3.43418" height="32.6248" transform="rotate(15 52.6729 -12.5317)" fill="#BB874B"/>
<rect x="58.6826" y="-12.5317" width="3.43418" height="32.6248" transform="rotate(15 58.6826 -12.5317)" fill="#BB874B"/>
<rect x="58.4438" y="-12.5317" width="3.43418" height="32.6248" transform="rotate(15 58.4438 -12.5317)" fill="#BB874B"/>
<rect x="64.4536" y="-12.5317" width="3.43418" height="32.6248" transform="rotate(15 64.4536 -12.5317)" fill="#BB874B"/>
<rect x="70.4634" y="-12.5317" width="3.43418" height="32.6248" transform="rotate(15 70.4634 -12.5317)" fill="#BB874B"/>
<rect x="76.4731" y="-12.5317" width="3.43418" height="32.6248" transform="rotate(15 76.4731 -12.5317)" fill="#BB874B"/>
<rect x="82.4829" y="-12.5317" width="3.43418" height="32.6248" transform="rotate(15 82.4829 -12.5317)" fill="#BB874B"/>
<rect x="88.4932" y="-12.5317" width="3.43418" height="32.6248" transform="rotate(15 88.4932 -12.5317)" fill="#BB874B"/>
<rect x="94.5029" y="-12.5317" width="3.43418" height="32.6248" transform="rotate(15 94.5029 -12.5317)" fill="#BB874B"/>
<rect x="100.513" y="-12.5317" width="3.43418" height="32.6248" transform="rotate(15 100.513 -12.5317)" fill="#BB874B"/>
<rect x="106.522" y="-12.5317" width="3.43418" height="32.6248" transform="rotate(15 106.522 -12.5317)" fill="#BB874B"/>
</g>
</svg>
